<?xml version="1.0" encoding="iso-8859-1"?>
<!-- Uploaded to: SVG Repo, www.svgrepo.com, Generator: SVG Repo Mixer Tools -->
<!DOCTYPE svg PUBLIC "-//W3C//DTD SVG 1.1//EN" "http://www.w3.org/Graphics/SVG/1.1/DTD/svg11.dtd">
<svg fill="#000000" version="1.1" id="Capa_1" xmlns="http://www.w3.org/2000/svg" xmlns:xlink="http://www.w3.org/1999/xlink" 
	 width="800px" height="800px" viewBox="0 0 590.58 590.58"
	 xml:space="preserve">
<g>
	<g>
		<path d="M253.98,295.289c0,7.16,3.341,13.908,9.033,18.25l290.7,221.66c4.076,3.109,8.981,4.699,13.92,4.699
			c3.467,0,6.952-0.785,10.178-2.381c7.821-3.871,12.77-11.842,12.77-20.568v-110.83c0-7.176-3.356-13.939-9.073-18.277
			l-121.883-92.553l121.883-92.553c5.717-4.339,9.073-11.102,9.073-18.277V73.631c0-8.727-4.948-16.698-12.77-20.569
			c-7.809-3.868-17.154-2.971-24.098,2.319l-290.7,221.661C257.318,281.381,253.98,288.131,253.98,295.289z M544.68,119.991v53.079
			L407.794,277.011c-5.716,4.339-9.073,11.102-9.073,18.278c0,7.176,3.357,13.938,9.073,18.277l136.883,103.941v53.078
			l-229.9-175.297L544.68,119.991z"/>
		<path d="M9.033,313.539l290.7,221.66c4.075,3.109,8.98,4.699,13.92,4.699c3.467,0,6.952-0.785,10.178-2.381
			c7.821-3.871,12.769-11.842,12.769-20.568v-110.83c0-7.176-3.356-13.939-9.072-18.277l-121.883-92.553l121.883-92.553
			c5.716-4.339,9.072-11.102,9.072-18.277V73.631c0-8.727-4.947-16.698-12.769-20.569c-7.81-3.868-17.151-2.971-24.098,2.319
			L9.033,277.042C3.341,281.381,0,288.131,0,295.291C0,302.451,3.338,309.199,9.033,313.539z M290.7,119.991v53.079L153.814,277.011
			c-5.716,4.339-9.073,11.102-9.073,18.278c0,7.176,3.356,13.938,9.073,18.277l136.883,103.941v53.078L60.796,295.289L290.7,119.991
			z"/>
	</g>
</g>
</svg>